<mxfile modified="2023-08-01T03:32:26.783Z" host="app.diagrams.net" agent="Mozilla/5.0 (Windows NT 10.0; Win64; x64) AppleWebKit/537.36 (KHTML, like Gecko) Chrome/115.0.0.0 Safari/537.36" etag="1xSBxpyYr0fON4juVbV8" version="21.6.6" type="device">
  <diagram id="Ht1M8jgEwFfnCIfOTk4-" name="Page-1">
    <mxGraphModel dx="1235" dy="1493" grid="1" gridSize="10" guides="1" tooltips="1" connect="1" arrows="1" fold="1" page="1" pageScale="1" pageWidth="1169" pageHeight="827" math="0" shadow="0">
      <root>
        <mxCell id="0" />
        <mxCell id="1" parent="0" />
        <mxCell id="UEzPUAAOIrF-is8g5C7q-175" value="AWS Cloud" style="points=[[0,0],[0.25,0],[0.5,0],[0.75,0],[1,0],[1,0.25],[1,0.5],[1,0.75],[1,1],[0.75,1],[0.5,1],[0.25,1],[0,1],[0,0.75],[0,0.5],[0,0.25]];outlineConnect=0;gradientColor=none;html=1;whiteSpace=wrap;fontSize=12;fontStyle=0;shape=mxgraph.aws4.group;grIcon=mxgraph.aws4.group_aws_cloud_alt;strokeColor=#232F3E;fillColor=none;verticalAlign=top;align=left;spacingLeft=30;fontColor=#232F3E;dashed=0;labelBackgroundColor=#ffffff;container=1;pointerEvents=0;collapsible=0;recursiveResize=0;" parent="1" vertex="1">
          <mxGeometry x="200" y="-789.5" width="981" height="609.5" as="geometry" />
        </mxCell>
        <mxCell id="UEzPUAAOIrF-is8g5C7q-177" value="" style="outlineConnect=0;fontColor=#232F3E;gradientColor=none;fillColor=#277116;strokeColor=none;dashed=0;verticalLabelPosition=bottom;verticalAlign=top;align=center;html=1;fontSize=12;fontStyle=0;aspect=fixed;pointerEvents=1;shape=mxgraph.aws4.bucket;labelBackgroundColor=#ffffff;" parent="UEzPUAAOIrF-is8g5C7q-175" vertex="1">
          <mxGeometry x="366" y="441.5" width="75" height="78" as="geometry" />
        </mxCell>
        <mxCell id="-SNbGcPkuo-1H3qRzq7K-1" value="" style="sketch=0;points=[[0,0,0],[0.25,0,0],[0.5,0,0],[0.75,0,0],[1,0,0],[0,1,0],[0.25,1,0],[0.5,1,0],[0.75,1,0],[1,1,0],[0,0.25,0],[0,0.5,0],[0,0.75,0],[1,0.25,0],[1,0.5,0],[1,0.75,0]];outlineConnect=0;fontColor=#232F3E;gradientColor=#4D72F3;gradientDirection=north;fillColor=#3334B9;strokeColor=#ffffff;dashed=0;verticalLabelPosition=bottom;verticalAlign=top;align=center;html=1;fontSize=12;fontStyle=0;aspect=fixed;shape=mxgraph.aws4.resourceIcon;resIcon=mxgraph.aws4.dynamodb;" parent="UEzPUAAOIrF-is8g5C7q-175" vertex="1">
          <mxGeometry x="251" y="441.5" width="78" height="78" as="geometry" />
        </mxCell>
        <mxCell id="-SNbGcPkuo-1H3qRzq7K-2" value="" style="sketch=0;points=[[0,0,0],[0.25,0,0],[0.5,0,0],[0.75,0,0],[1,0,0],[0,1,0],[0.25,1,0],[0.5,1,0],[0.75,1,0],[1,1,0],[0,0.25,0],[0,0.5,0],[0,0.75,0],[1,0.25,0],[1,0.5,0],[1,0.75,0]];outlineConnect=0;fontColor=#232F3E;gradientColor=#F78E04;gradientDirection=north;fillColor=#D05C17;strokeColor=#ffffff;dashed=0;verticalLabelPosition=bottom;verticalAlign=top;align=center;html=1;fontSize=12;fontStyle=0;aspect=fixed;shape=mxgraph.aws4.resourceIcon;resIcon=mxgraph.aws4.ec2;" parent="UEzPUAAOIrF-is8g5C7q-175" vertex="1">
          <mxGeometry x="121" y="69.5" width="78" height="78" as="geometry" />
        </mxCell>
        <mxCell id="-SNbGcPkuo-1H3qRzq7K-7" value="" style="sketch=0;points=[[0,0,0],[0.25,0,0],[0.5,0,0],[0.75,0,0],[1,0,0],[0,1,0],[0.25,1,0],[0.5,1,0],[0.75,1,0],[1,1,0],[0,0.25,0],[0,0.5,0],[0,0.75,0],[1,0.25,0],[1,0.5,0],[1,0.75,0]];outlineConnect=0;fontColor=#232F3E;gradientColor=#F78E04;gradientDirection=north;fillColor=#D05C17;strokeColor=#ffffff;dashed=0;verticalLabelPosition=bottom;verticalAlign=top;align=center;html=1;fontSize=12;fontStyle=0;aspect=fixed;shape=mxgraph.aws4.resourceIcon;resIcon=mxgraph.aws4.ec2;" parent="UEzPUAAOIrF-is8g5C7q-175" vertex="1">
          <mxGeometry x="122.5" y="228.5" width="78" height="78" as="geometry" />
        </mxCell>
        <mxCell id="-SNbGcPkuo-1H3qRzq7K-8" value="" style="sketch=0;points=[[0,0,0],[0.25,0,0],[0.5,0,0],[0.75,0,0],[1,0,0],[0,1,0],[0.25,1,0],[0.5,1,0],[0.75,1,0],[1,1,0],[0,0.25,0],[0,0.5,0],[0,0.75,0],[1,0.25,0],[1,0.5,0],[1,0.75,0]];outlineConnect=0;fontColor=#232F3E;gradientColor=#FF4F8B;gradientDirection=north;fillColor=#BC1356;strokeColor=#ffffff;dashed=0;verticalLabelPosition=bottom;verticalAlign=top;align=center;html=1;fontSize=12;fontStyle=0;aspect=fixed;shape=mxgraph.aws4.resourceIcon;resIcon=mxgraph.aws4.sns;" parent="UEzPUAAOIrF-is8g5C7q-175" vertex="1">
          <mxGeometry x="631" y="228.5" width="78" height="78" as="geometry" />
        </mxCell>
        <mxCell id="-SNbGcPkuo-1H3qRzq7K-9" value="" style="sketch=0;points=[[0,0,0],[0.25,0,0],[0.5,0,0],[0.75,0,0],[1,0,0],[0,1,0],[0.25,1,0],[0.5,1,0],[0.75,1,0],[1,1,0],[0,0.25,0],[0,0.5,0],[0,0.75,0],[1,0.25,0],[1,0.5,0],[1,0.75,0]];outlineConnect=0;fontColor=#232F3E;gradientColor=#FF4F8B;gradientDirection=north;fillColor=#BC1356;strokeColor=#ffffff;dashed=0;verticalLabelPosition=bottom;verticalAlign=top;align=center;html=1;fontSize=12;fontStyle=0;aspect=fixed;shape=mxgraph.aws4.resourceIcon;resIcon=mxgraph.aws4.step_functions;" parent="UEzPUAAOIrF-is8g5C7q-175" vertex="1">
          <mxGeometry x="421" y="69.5" width="78" height="78" as="geometry" />
        </mxCell>
        <mxCell id="-SNbGcPkuo-1H3qRzq7K-12" value="" style="sketch=0;outlineConnect=0;fontColor=#232F3E;gradientColor=none;fillColor=#B0084D;strokeColor=none;dashed=0;verticalLabelPosition=bottom;verticalAlign=top;align=center;html=1;fontSize=12;fontStyle=0;aspect=fixed;pointerEvents=1;shape=mxgraph.aws4.rule_3;" parent="UEzPUAAOIrF-is8g5C7q-175" vertex="1">
          <mxGeometry x="421" y="499.5" width="46.46" height="40.5" as="geometry" />
        </mxCell>
        <mxCell id="-SNbGcPkuo-1H3qRzq7K-13" value="" style="sketch=0;outlineConnect=0;fontColor=#232F3E;gradientColor=none;fillColor=#B0084D;strokeColor=none;dashed=0;verticalLabelPosition=bottom;verticalAlign=top;align=center;html=1;fontSize=12;fontStyle=0;aspect=fixed;pointerEvents=1;shape=mxgraph.aws4.topic;" parent="UEzPUAAOIrF-is8g5C7q-175" vertex="1">
          <mxGeometry x="820" y="234" width="78" height="67" as="geometry" />
        </mxCell>
        <mxCell id="-SNbGcPkuo-1H3qRzq7K-15" value="" style="outlineConnect=0;fontColor=#232F3E;gradientColor=none;fillColor=#277116;strokeColor=none;dashed=0;verticalLabelPosition=bottom;verticalAlign=top;align=center;html=1;fontSize=12;fontStyle=0;aspect=fixed;pointerEvents=1;shape=mxgraph.aws4.bucket;labelBackgroundColor=#ffffff;" parent="UEzPUAAOIrF-is8g5C7q-175" vertex="1">
          <mxGeometry x="521" y="429.5" width="75" height="78" as="geometry" />
        </mxCell>
        <mxCell id="-SNbGcPkuo-1H3qRzq7K-14" value="" style="outlineConnect=0;fontColor=#232F3E;gradientColor=none;fillColor=#277116;strokeColor=none;dashed=0;verticalLabelPosition=bottom;verticalAlign=top;align=center;html=1;fontSize=12;fontStyle=0;aspect=fixed;pointerEvents=1;shape=mxgraph.aws4.bucket;labelBackgroundColor=#ffffff;" parent="UEzPUAAOIrF-is8g5C7q-175" vertex="1">
          <mxGeometry x="122.5" y="441.5" width="75" height="78" as="geometry" />
        </mxCell>
        <mxCell id="-SNbGcPkuo-1H3qRzq7K-22" value="" style="edgeStyle=orthogonalEdgeStyle;html=1;endArrow=block;elbow=vertical;startArrow=none;endFill=1;strokeColor=#545B64;rounded=0;exitX=0.5;exitY=1;exitDx=0;exitDy=0;exitPerimeter=0;" parent="UEzPUAAOIrF-is8g5C7q-175" source="-SNbGcPkuo-1H3qRzq7K-7" target="-SNbGcPkuo-1H3qRzq7K-14" edge="1">
          <mxGeometry width="100" relative="1" as="geometry">
            <mxPoint x="151" y="330" as="sourcePoint" />
            <mxPoint x="151" y="422" as="targetPoint" />
          </mxGeometry>
        </mxCell>
        <mxCell id="-SNbGcPkuo-1H3qRzq7K-23" value="" style="edgeStyle=orthogonalEdgeStyle;html=1;endArrow=block;elbow=vertical;startArrow=none;endFill=1;strokeColor=#545B64;rounded=0;exitX=0.5;exitY=1;exitDx=0;exitDy=0;exitPerimeter=0;" parent="UEzPUAAOIrF-is8g5C7q-175" source="-SNbGcPkuo-1H3qRzq7K-7" target="-SNbGcPkuo-1H3qRzq7K-1" edge="1">
          <mxGeometry width="100" relative="1" as="geometry">
            <mxPoint x="170" y="328" as="sourcePoint" />
            <mxPoint x="170" y="452" as="targetPoint" />
            <Array as="points">
              <mxPoint x="162" y="380" />
              <mxPoint x="290" y="380" />
            </Array>
          </mxGeometry>
        </mxCell>
        <mxCell id="-SNbGcPkuo-1H3qRzq7K-24" value="" style="edgeStyle=orthogonalEdgeStyle;html=1;endArrow=block;elbow=vertical;startArrow=none;endFill=1;strokeColor=#545B64;rounded=0;exitX=0.5;exitY=1;exitDx=0;exitDy=0;exitPerimeter=0;" parent="UEzPUAAOIrF-is8g5C7q-175" source="-SNbGcPkuo-1H3qRzq7K-7" target="UEzPUAAOIrF-is8g5C7q-177" edge="1">
          <mxGeometry width="100" relative="1" as="geometry">
            <mxPoint x="170" y="328" as="sourcePoint" />
            <mxPoint x="300" y="452" as="targetPoint" />
            <Array as="points">
              <mxPoint x="160" y="307" />
              <mxPoint x="160" y="380" />
              <mxPoint x="404" y="380" />
            </Array>
          </mxGeometry>
        </mxCell>
        <mxCell id="-SNbGcPkuo-1H3qRzq7K-25" value="" style="edgeStyle=orthogonalEdgeStyle;html=1;endArrow=block;elbow=vertical;startArrow=none;endFill=1;strokeColor=#545B64;rounded=0;entryX=0.5;entryY=1;entryDx=0;entryDy=0;entryPerimeter=0;" parent="UEzPUAAOIrF-is8g5C7q-175" source="UEzPUAAOIrF-is8g5C7q-177" target="-SNbGcPkuo-1H3qRzq7K-9" edge="1">
          <mxGeometry width="100" relative="1" as="geometry">
            <mxPoint x="170" y="158" as="sourcePoint" />
            <mxPoint x="170" y="250" as="targetPoint" />
            <Array as="points">
              <mxPoint x="460" y="470" />
              <mxPoint x="460" y="240" />
            </Array>
          </mxGeometry>
        </mxCell>
        <mxCell id="-SNbGcPkuo-1H3qRzq7K-28" value="" style="edgeStyle=orthogonalEdgeStyle;html=1;endArrow=block;elbow=vertical;startArrow=none;endFill=1;strokeColor=#545B64;rounded=0;" parent="UEzPUAAOIrF-is8g5C7q-175" source="-SNbGcPkuo-1H3qRzq7K-14" target="-SNbGcPkuo-1H3qRzq7K-2" edge="1">
          <mxGeometry width="100" relative="1" as="geometry">
            <mxPoint x="31" y="189.5" as="sourcePoint" />
            <mxPoint x="131" y="189.5" as="targetPoint" />
            <Array as="points">
              <mxPoint x="81" y="481" />
              <mxPoint x="81" y="190" />
              <mxPoint x="141" y="190" />
            </Array>
          </mxGeometry>
        </mxCell>
        <mxCell id="-SNbGcPkuo-1H3qRzq7K-29" value="" style="edgeStyle=orthogonalEdgeStyle;html=1;endArrow=block;elbow=vertical;startArrow=none;endFill=1;strokeColor=#545B64;rounded=0;exitX=1;exitY=0.75;exitDx=0;exitDy=0;exitPerimeter=0;" parent="UEzPUAAOIrF-is8g5C7q-175" source="-SNbGcPkuo-1H3qRzq7K-9" target="-SNbGcPkuo-1H3qRzq7K-15" edge="1">
          <mxGeometry width="100" relative="1" as="geometry">
            <mxPoint x="516" y="108" as="sourcePoint" />
            <mxPoint x="616" y="108" as="targetPoint" />
          </mxGeometry>
        </mxCell>
        <mxCell id="-SNbGcPkuo-1H3qRzq7K-32" value="" style="edgeStyle=orthogonalEdgeStyle;html=1;endArrow=block;elbow=vertical;startArrow=none;endFill=1;strokeColor=#545B64;rounded=0;exitX=1;exitY=0.5;exitDx=0;exitDy=0;exitPerimeter=0;" parent="UEzPUAAOIrF-is8g5C7q-175" source="-SNbGcPkuo-1H3qRzq7K-7" target="-SNbGcPkuo-1H3qRzq7K-8" edge="1">
          <mxGeometry width="100" relative="1" as="geometry">
            <mxPoint x="311" y="269.5" as="sourcePoint" />
            <mxPoint x="411" y="269.5" as="targetPoint" />
          </mxGeometry>
        </mxCell>
        <mxCell id="-SNbGcPkuo-1H3qRzq7K-33" value="" style="edgeStyle=orthogonalEdgeStyle;html=1;endArrow=block;elbow=vertical;startArrow=none;endFill=1;strokeColor=#545B64;rounded=0;entryX=0.5;entryY=0;entryDx=0;entryDy=0;entryPerimeter=0;" parent="UEzPUAAOIrF-is8g5C7q-175" target="-SNbGcPkuo-1H3qRzq7K-8" edge="1">
          <mxGeometry width="100" relative="1" as="geometry">
            <mxPoint x="499" y="108.5" as="sourcePoint" />
            <mxPoint x="569" y="440" as="targetPoint" />
            <Array as="points">
              <mxPoint x="499" y="108" />
              <mxPoint x="670" y="108" />
            </Array>
          </mxGeometry>
        </mxCell>
        <mxCell id="-SNbGcPkuo-1H3qRzq7K-37" value="" style="edgeStyle=orthogonalEdgeStyle;html=1;endArrow=block;elbow=vertical;startArrow=none;endFill=1;strokeColor=#545B64;rounded=0;exitX=1;exitY=0.5;exitDx=0;exitDy=0;exitPerimeter=0;" parent="UEzPUAAOIrF-is8g5C7q-175" source="-SNbGcPkuo-1H3qRzq7K-8" target="-SNbGcPkuo-1H3qRzq7K-13" edge="1">
          <mxGeometry width="100" relative="1" as="geometry">
            <mxPoint x="789" y="339.5" as="sourcePoint" />
            <mxPoint x="889" y="339.5" as="targetPoint" />
          </mxGeometry>
        </mxCell>
        <mxCell id="-SNbGcPkuo-1H3qRzq7K-10" value="" style="sketch=0;outlineConnect=0;fontColor=#232F3E;gradientColor=none;fillColor=#B0084D;strokeColor=none;dashed=0;verticalLabelPosition=bottom;verticalAlign=top;align=center;html=1;fontSize=12;fontStyle=0;aspect=fixed;pointerEvents=1;shape=mxgraph.aws4.email_notification;" parent="UEzPUAAOIrF-is8g5C7q-175" vertex="1">
          <mxGeometry x="820" y="441.5" width="78" height="78" as="geometry" />
        </mxCell>
        <mxCell id="-SNbGcPkuo-1H3qRzq7K-38" value="" style="edgeStyle=orthogonalEdgeStyle;html=1;endArrow=block;elbow=vertical;startArrow=none;endFill=1;strokeColor=#545B64;rounded=0;" parent="UEzPUAAOIrF-is8g5C7q-175" source="-SNbGcPkuo-1H3qRzq7K-13" target="-SNbGcPkuo-1H3qRzq7K-10" edge="1">
          <mxGeometry width="100" relative="1" as="geometry">
            <mxPoint x="509" y="99" as="sourcePoint" />
            <mxPoint x="680" y="239" as="targetPoint" />
          </mxGeometry>
        </mxCell>
        <mxCell id="-SNbGcPkuo-1H3qRzq7K-41" value="backend-ip" style="text;html=1;strokeColor=none;fillColor=none;align=center;verticalAlign=middle;whiteSpace=wrap;rounded=0;fontStyle=1" parent="UEzPUAAOIrF-is8g5C7q-175" vertex="1">
          <mxGeometry x="115.5" y="529.5" width="83.5" height="30" as="geometry" />
        </mxCell>
        <mxCell id="-SNbGcPkuo-1H3qRzq7K-42" value="b00936916-user-images" style="text;html=1;strokeColor=none;fillColor=none;align=center;verticalAlign=middle;whiteSpace=wrap;rounded=0;fontStyle=1" parent="UEzPUAAOIrF-is8g5C7q-175" vertex="1">
          <mxGeometry x="361.75" y="529.5" width="83.5" height="40.5" as="geometry" />
        </mxCell>
        <mxCell id="-SNbGcPkuo-1H3qRzq7K-43" value="b00936916-user-report" style="text;html=1;strokeColor=none;fillColor=none;align=center;verticalAlign=middle;whiteSpace=wrap;rounded=0;fontStyle=1" parent="UEzPUAAOIrF-is8g5C7q-175" vertex="1">
          <mxGeometry x="524.25" y="510" width="83.5" height="30" as="geometry" />
        </mxCell>
        <mxCell id="-SNbGcPkuo-1H3qRzq7K-70" value="UserRegistration" style="text;html=1;strokeColor=none;fillColor=none;align=center;verticalAlign=middle;whiteSpace=wrap;rounded=0;fontStyle=1" parent="UEzPUAAOIrF-is8g5C7q-175" vertex="1">
          <mxGeometry x="248.25" y="529.5" width="83.5" height="30" as="geometry" />
        </mxCell>
        <mxCell id="-SNbGcPkuo-1H3qRzq7K-73" value="FrontEndEC2Instance&lt;br&gt;(React)" style="text;html=1;strokeColor=none;fillColor=none;align=center;verticalAlign=middle;whiteSpace=wrap;rounded=0;fontStyle=1" parent="UEzPUAAOIrF-is8g5C7q-175" vertex="1">
          <mxGeometry x="165.5" y="147.5" width="130" height="30" as="geometry" />
        </mxCell>
        <mxCell id="-SNbGcPkuo-1H3qRzq7K-74" value="BackEndEC2Instance&lt;br&gt;(Flask)" style="text;html=1;strokeColor=none;fillColor=none;align=center;verticalAlign=middle;whiteSpace=wrap;rounded=0;fontStyle=1" parent="UEzPUAAOIrF-is8g5C7q-175" vertex="1">
          <mxGeometry x="166" y="306.5" width="129.5" height="30" as="geometry" />
        </mxCell>
        <mxCell id="-SNbGcPkuo-1H3qRzq7K-75" value="MyStateMachineV3" style="text;html=1;strokeColor=none;fillColor=none;align=center;verticalAlign=middle;whiteSpace=wrap;rounded=0;fontStyle=1" parent="UEzPUAAOIrF-is8g5C7q-175" vertex="1">
          <mxGeometry x="396.75" y="39.5" width="126.5" height="30" as="geometry" />
        </mxCell>
        <mxCell id="-SNbGcPkuo-1H3qRzq7K-76" value="SendDetectioninfoTo&amp;lt;user_email&amp;gt;" style="text;html=1;strokeColor=none;fillColor=none;align=center;verticalAlign=middle;whiteSpace=wrap;rounded=0;fontStyle=1" parent="UEzPUAAOIrF-is8g5C7q-175" vertex="1">
          <mxGeometry x="760" y="204" width="200" height="30" as="geometry" />
        </mxCell>
        <mxCell id="-SNbGcPkuo-1H3qRzq7K-77" value="user_email as subscriber" style="text;html=1;strokeColor=none;fillColor=none;align=center;verticalAlign=middle;whiteSpace=wrap;rounded=0;fontStyle=1" parent="UEzPUAAOIrF-is8g5C7q-175" vertex="1">
          <mxGeometry x="841" y="529.5" width="140" height="30" as="geometry" />
        </mxCell>
        <mxCell id="-SNbGcPkuo-1H3qRzq7K-78" value="Put backend_EC2 IP" style="text;html=1;strokeColor=none;fillColor=none;align=center;verticalAlign=middle;whiteSpace=wrap;rounded=0;" parent="UEzPUAAOIrF-is8g5C7q-175" vertex="1">
          <mxGeometry x="90" y="399.5" width="100" height="30" as="geometry" />
        </mxCell>
        <mxCell id="-SNbGcPkuo-1H3qRzq7K-79" value="Put User Images" style="text;html=1;strokeColor=none;fillColor=none;align=center;verticalAlign=middle;whiteSpace=wrap;rounded=0;" parent="UEzPUAAOIrF-is8g5C7q-175" vertex="1">
          <mxGeometry x="345.25" y="346.5" width="100" height="30" as="geometry" />
        </mxCell>
        <mxCell id="-SNbGcPkuo-1H3qRzq7K-82" value="Add/Fetch registration data" style="text;html=1;strokeColor=none;fillColor=none;align=center;verticalAlign=middle;whiteSpace=wrap;rounded=0;" parent="UEzPUAAOIrF-is8g5C7q-175" vertex="1">
          <mxGeometry x="260" y="389.5" width="100" height="30" as="geometry" />
        </mxCell>
        <mxCell id="-SNbGcPkuo-1H3qRzq7K-83" value="" style="edgeStyle=orthogonalEdgeStyle;html=1;endArrow=block;elbow=vertical;startArrow=block;startFill=1;endFill=1;strokeColor=#545B64;rounded=0;exitX=0.5;exitY=1;exitDx=0;exitDy=0;exitPerimeter=0;" parent="UEzPUAAOIrF-is8g5C7q-175" source="-SNbGcPkuo-1H3qRzq7K-2" target="-SNbGcPkuo-1H3qRzq7K-7" edge="1">
          <mxGeometry width="100" relative="1" as="geometry">
            <mxPoint x="330" y="239.5" as="sourcePoint" />
            <mxPoint x="430" y="239.5" as="targetPoint" />
          </mxGeometry>
        </mxCell>
        <mxCell id="-SNbGcPkuo-1H3qRzq7K-84" value="Trigger state machine on Object Created" style="text;html=1;strokeColor=none;fillColor=none;align=center;verticalAlign=middle;whiteSpace=wrap;rounded=0;" parent="UEzPUAAOIrF-is8g5C7q-175" vertex="1">
          <mxGeometry x="385" y="162.5" width="70" height="66" as="geometry" />
        </mxCell>
        <mxCell id="-SNbGcPkuo-1H3qRzq7K-85" value="EventBridge Rule" style="text;html=1;strokeColor=none;fillColor=none;align=center;verticalAlign=middle;whiteSpace=wrap;rounded=0;" parent="UEzPUAAOIrF-is8g5C7q-175" vertex="1">
          <mxGeometry x="445.25" y="540" width="79" height="30" as="geometry" />
        </mxCell>
        <mxCell id="-SNbGcPkuo-1H3qRzq7K-87" value="Publish message with S3URI of Report" style="text;html=1;strokeColor=none;fillColor=none;align=center;verticalAlign=middle;whiteSpace=wrap;rounded=0;" parent="UEzPUAAOIrF-is8g5C7q-175" vertex="1">
          <mxGeometry x="670" y="129.5" width="70" height="66" as="geometry" />
        </mxCell>
        <mxCell id="-SNbGcPkuo-1H3qRzq7K-88" value="Put Detection Report" style="text;html=1;strokeColor=none;fillColor=none;align=center;verticalAlign=middle;whiteSpace=wrap;rounded=0;" parent="UEzPUAAOIrF-is8g5C7q-175" vertex="1">
          <mxGeometry x="550" y="328.5" width="70" height="66" as="geometry" />
        </mxCell>
        <mxCell id="-SNbGcPkuo-1H3qRzq7K-90" value="Get backend_EC2 IP" style="text;html=1;strokeColor=none;fillColor=none;align=center;verticalAlign=middle;whiteSpace=wrap;rounded=0;" parent="UEzPUAAOIrF-is8g5C7q-175" vertex="1">
          <mxGeometry x="15.5" y="252.5" width="100" height="30" as="geometry" />
        </mxCell>
        <mxCell id="-SNbGcPkuo-1H3qRzq7K-92" value="Create SNS topic with user as subscriber" style="text;html=1;strokeColor=none;fillColor=none;align=center;verticalAlign=middle;whiteSpace=wrap;rounded=0;" parent="UEzPUAAOIrF-is8g5C7q-175" vertex="1">
          <mxGeometry x="260" y="234" width="125" height="30" as="geometry" />
        </mxCell>
        <mxCell id="-SNbGcPkuo-1H3qRzq7K-96" value="Registration/Login&lt;br&gt;/Image_Analysis" style="text;html=1;strokeColor=none;fillColor=none;align=center;verticalAlign=middle;whiteSpace=wrap;rounded=0;" parent="UEzPUAAOIrF-is8g5C7q-175" vertex="1">
          <mxGeometry x="-10" y="59.5" width="120" height="50" as="geometry" />
        </mxCell>
        <mxCell id="RY9-54H4j2ex29fKZ8hq-1" value="" style="sketch=0;points=[[0,0,0],[0.25,0,0],[0.5,0,0],[0.75,0,0],[1,0,0],[0,1,0],[0.25,1,0],[0.5,1,0],[0.75,1,0],[1,1,0],[0,0.25,0],[0,0.5,0],[0,0.75,0],[1,0.25,0],[1,0.5,0],[1,0.75,0]];outlineConnect=0;fontColor=#232F3E;gradientColor=#4AB29A;gradientDirection=north;fillColor=#116D5B;strokeColor=#ffffff;dashed=0;verticalLabelPosition=bottom;verticalAlign=top;align=center;html=1;fontSize=12;fontStyle=0;aspect=fixed;shape=mxgraph.aws4.resourceIcon;resIcon=mxgraph.aws4.rekognition_2;" vertex="1" parent="UEzPUAAOIrF-is8g5C7q-175">
          <mxGeometry x="810" y="51.5" width="78" height="78" as="geometry" />
        </mxCell>
        <mxCell id="RY9-54H4j2ex29fKZ8hq-2" value="Amazon Rekognition" style="text;html=1;strokeColor=none;fillColor=none;align=center;verticalAlign=middle;whiteSpace=wrap;rounded=0;fontStyle=1" vertex="1" parent="UEzPUAAOIrF-is8g5C7q-175">
          <mxGeometry x="819" y="132.5" width="60" height="30" as="geometry" />
        </mxCell>
        <mxCell id="RY9-54H4j2ex29fKZ8hq-6" value="" style="edgeStyle=orthogonalEdgeStyle;html=1;endArrow=block;elbow=vertical;startArrow=block;startFill=1;endFill=1;strokeColor=#545B64;rounded=0;entryX=0;entryY=0.5;entryDx=0;entryDy=0;entryPerimeter=0;exitX=1;exitY=0.25;exitDx=0;exitDy=0;exitPerimeter=0;" edge="1" parent="UEzPUAAOIrF-is8g5C7q-175" source="-SNbGcPkuo-1H3qRzq7K-9" target="RY9-54H4j2ex29fKZ8hq-1">
          <mxGeometry width="100" relative="1" as="geometry">
            <mxPoint x="380" y="289.5" as="sourcePoint" />
            <mxPoint x="480" y="289.5" as="targetPoint" />
            <Array as="points">
              <mxPoint x="800" y="89" />
              <mxPoint x="800" y="91" />
            </Array>
          </mxGeometry>
        </mxCell>
        <mxCell id="RY9-54H4j2ex29fKZ8hq-4" value="Image Analysis &amp;amp; Detection&amp;nbsp;" style="text;html=1;strokeColor=none;fillColor=none;align=center;verticalAlign=middle;whiteSpace=wrap;rounded=0;" vertex="1" parent="UEzPUAAOIrF-is8g5C7q-175">
          <mxGeometry x="580" y="60" width="180" height="35.5" as="geometry" />
        </mxCell>
        <mxCell id="-SNbGcPkuo-1H3qRzq7K-16" value="" style="sketch=0;outlineConnect=0;fontColor=#232F3E;gradientColor=none;fillColor=#232F3D;strokeColor=none;dashed=0;verticalLabelPosition=bottom;verticalAlign=top;align=center;html=1;fontSize=12;fontStyle=0;aspect=fixed;pointerEvents=1;shape=mxgraph.aws4.client;" parent="1" vertex="1">
          <mxGeometry x="110" y="-700" width="41.05" height="40" as="geometry" />
        </mxCell>
        <mxCell id="-SNbGcPkuo-1H3qRzq7K-17" value="" style="sketch=0;outlineConnect=0;fontColor=#232F3E;gradientColor=none;fillColor=#232F3D;strokeColor=none;dashed=0;verticalLabelPosition=bottom;verticalAlign=top;align=center;html=1;fontSize=12;fontStyle=0;aspect=fixed;pointerEvents=1;shape=mxgraph.aws4.user;" parent="1" vertex="1">
          <mxGeometry x="50" y="-700" width="52" height="52" as="geometry" />
        </mxCell>
        <mxCell id="-SNbGcPkuo-1H3qRzq7K-18" value="" style="edgeStyle=orthogonalEdgeStyle;html=1;endArrow=block;elbow=vertical;startArrow=none;endFill=1;strokeColor=#545B64;rounded=0;entryX=0;entryY=0.5;entryDx=0;entryDy=0;entryPerimeter=0;" parent="1" target="-SNbGcPkuo-1H3qRzq7K-2" edge="1">
          <mxGeometry width="100" relative="1" as="geometry">
            <mxPoint x="160" y="-680.5" as="sourcePoint" />
            <mxPoint x="340" y="-681" as="targetPoint" />
          </mxGeometry>
        </mxCell>
        <mxCell id="-SNbGcPkuo-1H3qRzq7K-39" value="" style="edgeStyle=orthogonalEdgeStyle;html=1;endArrow=block;elbow=vertical;startArrow=none;endFill=1;strokeColor=#545B64;rounded=0;" parent="1" source="-SNbGcPkuo-1H3qRzq7K-10" target="-SNbGcPkuo-1H3qRzq7K-16" edge="1">
          <mxGeometry width="100" relative="1" as="geometry">
            <mxPoint x="1069" y="-478.5" as="sourcePoint" />
            <mxPoint x="1069" y="-337.5" as="targetPoint" />
            <Array as="points">
              <mxPoint x="1059" y="-200" />
              <mxPoint x="131" y="-200" />
            </Array>
          </mxGeometry>
        </mxCell>
        <mxCell id="-SNbGcPkuo-1H3qRzq7K-89" value="Receives report in Email" style="text;html=1;strokeColor=none;fillColor=none;align=center;verticalAlign=middle;whiteSpace=wrap;rounded=0;" parent="1" vertex="1">
          <mxGeometry x="70" y="-600" width="70" height="66" as="geometry" />
        </mxCell>
      </root>
    </mxGraphModel>
  </diagram>
</mxfile>
